<?xml version="1.0" encoding="UTF-8"?>
<svg width="2172px" height="510px" viewBox="0 0 2172 510" version="1.1" xmlns="http://www.w3.org/2000/svg" xmlns:xlink="http://www.w3.org/1999/xlink">
    <!-- Generator: Sketch 50.2 (55047) - http://www.bohemiancoding.com/sketch -->
    <title>jumper_horizontal_logo_color</title>
    <desc>Created with Sketch.</desc>
    <defs>
        <linearGradient x1="10.8284767%" y1="22.7956931%" x2="92.4595836%" y2="75.1681371%" id="linearGradient-1">
            <stop stop-color="#8D0092" offset="0%"></stop>
            <stop stop-color="#FF6666" offset="100%"></stop>
        </linearGradient>
        <linearGradient x1="7.25471705%" y1="26.5097789%" x2="90.8672626%" y2="77.5991603%" id="linearGradient-2">
            <stop stop-color="#3525FF" offset="0%"></stop>
            <stop stop-color="#FF7DE9" offset="100%"></stop>
        </linearGradient>
    </defs>
    <g id="jumper_horizontal_logo_color" stroke="none" stroke-width="1" fill="none" fill-rule="evenodd">
        <g id="Group-2" transform="translate(36.000000, 0.000000)">
            <path d="M662.692211,155.872156 L662.692211,108 L718.237961,108 L718.237961,155.872156 L662.692211,155.872156 Z M628,402.490325 L628,352.725728 L641.878096,352.725728 C655.195127,352.725728 662.261554,345.143822 662.261554,331.056642 L662.261554,176.367565 L718.671654,176.367565 L718.671654,335.724063 C718.671654,377.694462 692.974732,402.490325 649.202313,402.490325 L628,402.490325 Z M833.259982,345.504717 C784.880738,345.504717 752.484355,315.65627 752.484355,269.831229 L752.484355,176.36756 L808.894455,176.36756 L808.894455,267.377725 C808.894455,284.664471 818.186957,294.830292 833.259977,294.830292 C848.329967,294.830292 857.446566,284.491606 857.446566,267.37773 L857.446566,176.367565 L913.856666,176.36756 L913.856666,269.831234 C913.856666,315.656275 881.636185,345.504722 833.259977,345.504722 L833.259982,345.504717 Z M1140.47666,171.524248 C1175.55707,171.524248 1198.87324,198.855501 1198.87324,237.420108 L1198.87324,340.136738 L1142.46314,340.136738 L1142.46314,244.395462 C1142.46314,227.290684 1136.16705,219.038535 1124.18142,219.038535 C1108.67774,219.038535 1100.72877,229.716894 1100.72877,250.339678 L1100.72877,340.136738 L1045.78958,340.136738 L1045.78958,244.395462 C1045.78958,227.806252 1039.53898,219.038535 1027.72925,219.038535 C1012.43787,219.038535 1004.0552,229.974676 1004.0552,250.339673 L1004.0552,340.136733 L947.645104,340.136738 L947.645104,176.367565 L987.311107,176.367565 L995.341963,193.963653 C1007.17595,180.176714 1024.35071,171.524243 1043.21473,171.524243 C1063.17966,171.524243 1079.99047,180.492123 1090.18372,195.634704 C1101.95099,180.819658 1120.0841,171.524243 1140.47666,171.524243 L1140.47666,171.524248 Z M1328.57098,170.999572 C1378.64859,170.999572 1414.44474,207.228953 1414.44474,258.252149 C1414.44474,309.275345 1378.64859,345.677592 1328.57098,345.677592 C1313.76181,345.677592 1300.20519,341.783526 1288.64719,334.802105 L1288.64719,399.2756 L1232.88004,399.2756 L1232.88004,176.367565 L1271.24194,176.367565 L1278.30837,189.378114 C1291.77704,177.732308 1309.1095,170.999576 1328.57098,170.999576 L1328.57098,170.999572 Z M1321.02537,295.727991 C1342.02449,295.727991 1357.68587,279.76353 1357.68587,258.249113 C1357.68587,236.734696 1342.15489,220.770235 1321.02537,220.770235 C1299.89585,220.770235 1284.36487,236.734696 1284.36487,258.249113 C1284.36487,279.76353 1299.89585,295.727991 1321.02537,295.727991 Z M1609.53271,256.699376 L1609.52967,256.705438 C1609.52967,261.639744 1609.09902,266.57405 1608.36508,271.638762 L1486.75885,271.638762 C1490.44977,290.423693 1502.38081,300.137631 1520.19245,300.137631 C1533.36997,300.137631 1544.37904,294.366284 1549.80169,284.779722 L1605.9358,284.779722 C1594.41116,322.155487 1561.28084,345.507758 1520.19245,345.507758 C1469.09278,345.507758 1431.23736,308.159291 1431.23736,258.127809 C1431.23736,207.920427 1468.7895,171.002612 1520.19245,171.002612 C1572.98139,171.002612 1609.53271,208.663453 1609.53271,256.699376 Z M1520.18942,215.202083 C1503.74861,215.202083 1492.31798,224.133568 1487.75361,240.401305 L1553.95966,240.401305 C1549.01013,224.033486 1537.21253,215.202083 1520.18942,215.202083 L1520.18942,215.202083 Z M1727.33883,175.588143 L1742.28144,175.588138 L1742.28144,227.208789 L1720.38158,227.208789 C1700.41059,227.208789 1692.04612,235.967408 1692.04612,256.857077 L1692.04612,340.136733 L1635.63602,340.136733 L1635.63602,176.367565 L1673.42776,176.367565 L1682.22895,194.542908 C1693.77785,181.183588 1707.84702,175.588143 1727.33883,175.588143 Z M1745.30818,340.136733 L1745.30818,287.733634 L1800.029,287.733634 L1800.029,340.136733 L1745.30818,340.136733 Z M1966.25986,176.191664 L2008.30358,176.1947 L2008.30358,339.963868 L1964.69494,339.963868 L1959.86369,328.381748 C1946.45264,339.245105 1929.46895,345.504726 1910.44723,345.504726 C1860.36962,345.504726 1824.57347,308.972069 1824.57347,258.076248 C1824.57347,207.356329 1860.36962,171.257358 1910.44723,171.257358 C1929.73584,171.257358 1946.96518,177.698947 1960.48844,188.856478 L1966.25986,176.191664 Z M1917.9898,295.558162 C1939.11932,295.558162 1954.6503,279.593701 1954.6503,258.206659 C1954.6503,236.950029 1939.11932,220.985568 1917.9898,220.985568 C1896.73289,220.985568 1881.3293,236.950029 1881.3293,258.206659 C1881.3293,279.593701 1896.86028,295.558162 1917.9898,295.558162 L1917.9898,295.558162 Z M2044.73966,155.872156 L2044.73966,108 L2100.28541,108 L2100.28541,155.872156 L2044.73966,155.872156 Z M2044.309,340.133698 L2044.309,176.364529 L2100.7191,176.364529 L2100.7191,340.133698 L2044.309,340.133698 Z" id="jumper.ai" fill="#ffffff"></path>
            <g id="Group" transform="translate(0.631075, 0.000000)" fill-rule="nonzero">
                <g id="Group-6">
                    <ellipse id="Oval-1" fill="url(#linearGradient-1)" cx="279.702639" cy="262.666054" rx="248.54589" ry="247.173686"></ellipse>
                    <ellipse id="Oval-1-Copy" fill="url(#linearGradient-2)" opacity="0.795475746" cx="248.54589" cy="247.173686" rx="248.54589" ry="247.173686"></ellipse>
                </g>
                <g id="Group-2" transform="translate(120.820136, 71.269017)">
                    <g id="Group-5" opacity="0.604361007" transform="translate(9.029449, 8.093017)" fill="#3C0062" fill-opacity="0.564453125">
                        <path d="M25.2083855,327.515161 C38.9912253,339.083678 60.7500582,350.439533 73.1193915,355.11098 C85.4887244,359.782427 95.0216427,362.087223 95.0216427,362.087223 C95.0216427,362.087223 90.0869275,353.770063 87.8243509,346.570705 C85.8988397,340.443864 86.5569525,335.461453 86.8866154,333.513049 C105.890434,323.827454 118.92658,303.909249 118.92658,280.910347 C118.92658,248.401071 92.8800648,222.047096 60.7500601,222.047096 C28.620055,222.047096 2.57353964,248.401071 2.57353964,280.910347 C2.57353964,299.877886 11.4255457,315.946644 25.2083855,327.515161 Z" id="Oval-71" transform="translate(60.750060, 292.067160) rotate(-2.000000) translate(-60.750060, -292.067160) "></path>
                        <path d="M183.063754,38.6382041 L183.063754,250.765949 C183.063754,268.327946 180.189807,283.874034 174.483782,297.454942 C168.80147,310.979409 159.038418,324.434138 145.116633,337.786814 C142.188479,340.699326 140.678391,344.306554 140.678391,348.273074 C140.678391,353.985293 143.730581,358.89265 148.98626,362.916536 L153.58445,366.437032 L158.362616,363.162563 C174.981468,351.773691 188.396927,341.077988 198.626131,331.034301 C209.100565,320.74983 217.227163,309.823235 222.96676,298.255013 C228.709878,286.679693 232.42577,273.806137 234.130024,259.670566 C235.770809,246.061428 236.58595,229.834997 236.58595,210.967122 L236.58595,38.6382041 C236.58595,35.8944346 237.154178,34.700462 238.261735,34.0063794 C240.714254,32.469436 246.605133,30.7859212 255.484906,29.3527053 C262.637965,28.7250329 266.575594,22.6681215 266.575594,14.7589082 C266.575594,12.5625291 266.248461,9.95772827 265.621144,6.83584536 L264.247539,3.97903932e-12 L257.260096,0.479634637 C249.595706,1.00573646 241.328942,1.46650601 232.460512,1.86173922 C223.641058,2.25478975 216.09258,2.45078386 209.824852,2.45078386 C203.822512,2.45078386 196.269118,2.25466211 187.178882,1.86128637 C178.031443,1.46543524 169.218165,1.003752 160.738979,0.476286087 L153.793826,0.0442479976 L152.429112,6.83584536 C151.801796,9.95772827 151.474663,12.5625291 151.474663,14.7589082 C151.474663,22.1283177 154.891786,27.9102072 161.878297,29.300962 C171.981076,30.8187096 178.455084,32.5330812 181.203979,34.1369521 C182.489323,34.8868988 183.063754,36.0106624 183.063754,38.6382041 Z" id="J"></path>
                    </g>
                    <g id="Group-5-Copy" transform="translate(0.015448, 0.057027)" fill="#FFFFFF">
                        <path d="M24.4096086,328.757761 C10.2316827,317.677607 0.824629165,301.927761 0.163086735,282.971777 C-0.970759115,250.482306 24.1407258,223.234804 56.2511581,222.11278 C88.3615905,220.990755 115.311402,246.419095 116.445249,278.908567 C117.247395,301.893458 104.913889,322.254771 86.2594578,332.598105 C85.9979511,334.556834 85.5140137,339.559192 87.652042,345.615059 C90.164337,352.731019 95.3861285,360.870787 95.3861285,360.870787 C95.3861285,360.870787 85.7786314,358.900296 73.2539048,354.66365 C60.7291775,350.427003 38.5875345,339.837914 24.4096086,328.757761 Z M79.154466,278.885758 C79.154466,283.165045 82.6198702,286.63239 86.8946633,286.63239 L86.9173726,286.63239 C91.1976674,286.63239 94.6575706,283.164105 94.6575706,278.885758 C94.6575706,274.60647 91.1921658,271.139125 86.9173726,271.139125 L86.8946633,271.139125 C82.6143685,271.139125 79.154466,274.60741 79.154466,278.885758 Z M49.9754197,278.885758 C49.9754197,283.165045 53.4408242,286.63239 57.7156173,286.63239 L57.7383269,286.63239 C62.0186213,286.63239 65.4785244,283.164105 65.4785244,278.885758 C65.4785244,274.60647 62.01312,271.139125 57.7383269,271.139125 L57.7156173,271.139125 C53.4353229,271.139125 49.9754197,274.60741 49.9754197,278.885758 Z M20.7963738,278.885758 C20.7963738,283.165045 24.2617783,286.63239 28.5365713,286.63239 L28.559281,286.63239 C32.8395754,286.63239 36.2994785,283.164105 36.2994785,278.885758 C36.2994785,274.60647 32.834074,271.139125 28.559281,271.139125 L28.5365713,271.139125 C24.2562769,271.139125 20.7963738,274.60741 20.7963738,278.885758 Z" id="Combined-Shape"></path>
                        <path d="M180.996674,38.6382041 L180.996674,250.765949 C180.996674,268.327946 178.122727,283.874034 172.416701,297.454942 C166.734389,310.979409 156.971338,324.434138 143.049552,337.786814 C140.121399,340.699326 138.611311,344.306554 138.611311,348.273074 C138.611311,353.985293 141.6635,358.89265 146.919179,362.916536 L151.51737,366.437032 L156.295536,363.162563 C172.914387,351.773691 186.329847,341.077988 196.559051,331.034301 C207.033485,320.74983 215.160083,309.823235 220.899679,298.255013 C226.642797,286.679693 230.358689,273.806137 232.062944,259.670566 C233.703728,246.061428 234.518869,229.834997 234.518869,210.967122 L234.518869,38.6382041 C234.518869,35.8944346 235.087098,34.700462 236.194654,34.0063794 C238.647174,32.469436 244.538052,30.7859212 253.417825,29.3527053 C260.570884,28.7250329 264.508513,22.6681215 264.508513,14.7589082 C264.508513,12.5625291 264.18138,9.95772827 263.554064,6.83584536 L262.180459,3.63797881e-12 L255.193015,0.479634637 C247.528625,1.00573646 239.261861,1.46650601 230.393431,1.86173922 C221.573977,2.25478975 214.025499,2.45078386 207.757772,2.45078386 C201.755432,2.45078386 194.202038,2.25466211 185.111801,1.86128637 C175.964362,1.46543524 167.151084,1.003752 158.671898,0.476286087 L151.726745,0.0442479976 L150.362031,6.83584536 C149.734715,9.95772827 149.407582,12.5625291 149.407582,14.7589082 C149.407582,22.1283177 152.824705,27.9102072 159.811216,29.300962 C169.913995,30.8187096 176.388004,32.5330812 179.136899,34.1369521 C180.422243,34.8868988 180.996674,36.0106624 180.996674,38.6382041 Z" id="J"></path>
                    </g>
                </g>
            </g>
        </g>
    </g>
</svg>